M48
; DRILL file {KiCad (6.0.10-0)} date Sunday, February 19, 2023 at 06:45:30 PM
; FORMAT={-:-/ absolute / inch / decimal}
; #@! TF.CreationDate,2023-02-19T18:45:30-05:00
; #@! TF.GenerationSoftware,Kicad,Pcbnew,(6.0.10-0)
; #@! TF.FileFunction,Plated,1,2,PTH
FMAT,2
INCH
; #@! TA.AperFunction,Plated,PTH,ViaDrill
T1C0.0157
; #@! TA.AperFunction,Plated,PTH,ComponentDrill
T2C0.0315
; #@! TA.AperFunction,Plated,PTH,ViaDrill
T3C0.0394
%
G90
G05
T1
X3.8024Y-7.9544
X3.8046Y-7.3801
X3.8541Y-6.9955
X3.8901Y-8.3631
X3.9729Y-6.6065
X4.1107Y-8.7307
X4.1596Y-6.2601
X4.3059Y-9.097
X4.3688Y-5.9263
X4.6227Y-9.4181
X4.6942Y-5.5983
X5.0066Y-9.6182
X5.0385Y-5.3998
X5.206Y-7.5421
X5.2188Y-7.1447
X5.3281Y-4.9795
X5.3284Y-9.8041
X5.3542Y-8.0318
X5.3654Y-6.7897
X5.5535Y-6.5635
X5.5773Y-8.3136
X5.6593Y-4.6509
X5.7187Y-9.9088
X5.9004Y-8.5179
X5.9415Y-6.3167
X6.0631Y-9.9448
X6.2306Y-8.6471
X6.2766Y-7.5746
X6.3113Y-8.6798
X6.3219Y-4.3035
X6.3329Y-6.1173
X6.5376Y-6.1845
X6.5467Y-7.8368
X6.6174Y-4.6001
X6.6259Y-7.1021
X6.8093Y-8.1064
X6.8246Y-9.8897
X6.9116Y-4.8992
X6.9769Y-6.7452
X7.0092Y-8.5812
X7.0799Y-8.368
X7.1619Y-6.5359
X7.2043Y-5.2008
X7.2311Y-9.8055
X7.3436Y-6.404
X7.4893Y-6.2225
X7.5076Y-5.4908
X7.6562Y-9.5984
X7.6729Y-8.4854
X7.7005Y-6.0529
X7.8081Y-5.7835
X8.0366Y-9.3637
X8.0478Y-5.6923
X8.0797Y-8.0786
X8.282Y-7.9162
X8.324Y-7.569
X8.3399Y-8.9648
X8.4064Y-5.343
X8.5811Y-8.5681
X8.7529Y-4.9816
X8.9219Y-8.5617
X8.9537Y-8.1573
X9.0308Y-7.4367
X9.0852Y-6.6483
X9.1856Y-6.3697
X9.2486Y-8.8778
X9.361Y-5.1966
X9.3985Y-6.5797
X9.4133Y-6.963
X9.5717Y-9.1974
X9.6318Y-5.4597
X9.7372Y-7.2819
X9.844Y-9.7869
X9.8885Y-9.5234
X9.8935Y-5.7319
X10.0575Y-7.6043
X10.1572Y-6.002
X10.3792Y-8.0435
X10.4429Y-10.0155
X10.6946Y-8.3589
X10.8514Y-9.7115
X11.0114Y-8.5787
X11.1153Y-8.5172
X11.2513Y-9.3014
X11.6576Y-8.8976
T2
X8.9653Y-7.9794
X9.036Y-8.0501
X9.1067Y-8.1208
X9.1774Y-8.1916
X9.2481Y-8.2623
X9.3188Y-8.333
X9.3895Y-7.5552
X9.3895Y-8.4037
X9.4602Y-7.6259
X9.4602Y-8.4744
X9.5309Y-7.6966
X9.5309Y-8.5451
X9.6017Y-7.7673
X9.6017Y-8.6158
X9.6724Y-7.838
X9.6724Y-8.6865
X9.7431Y-7.9087
X9.7431Y-8.7572
X9.8138Y-7.9794
X9.8138Y-8.8279
X9.8845Y-8.0501
X9.8845Y-8.8987
X9.9552Y-8.1208
X10.0259Y-8.1916
X10.0966Y-8.2623
X10.1673Y-8.333
X10.238Y-8.4037
X10.3088Y-8.4744
T3
X8.2148Y-6.7848
T0
M30
