%TF.GenerationSoftware,KiCad,Pcbnew,(6.0.10-0)*%
%TF.CreationDate,2023-02-19T18:45:27-05:00*%
%TF.ProjectId,Grad_Cap,47726164-5f43-4617-902e-6b696361645f,rev?*%
%TF.SameCoordinates,Original*%
%TF.FileFunction,Drillmap*%
%TF.FilePolarity,Positive*%
%FSLAX45Y45*%
G04 Gerber Fmt 4.5, Leading zero omitted, Abs format (unit mm)*
G04 Created by KiCad (PCBNEW (6.0.10-0)) date 2023-02-19 18:45:27*
%MOMM*%
%LPD*%
G01*
G04 APERTURE LIST*
%ADD10C,0.100000*%
%ADD11C,0.200000*%
%ADD12C,0.040000*%
%ADD13C,0.080000*%
G04 APERTURE END LIST*
D10*
X20229865Y-19070726D02*
G75*
G03*
X20229865Y-19070726I-1200000J0D01*
G01*
X31029865Y-31070726D02*
X7029865Y-31070726D01*
X7029865Y-7070726D01*
X31029865Y-7070726D01*
X31029865Y-31070726D01*
D11*
D12*
X9638197Y-20184063D02*
X9678197Y-20224063D01*
X9678197Y-20184063D02*
X9638197Y-20224063D01*
X9643585Y-18725486D02*
X9683585Y-18765486D01*
X9683585Y-18725486D02*
X9643585Y-18765486D01*
X9769464Y-17748589D02*
X9809464Y-17788589D01*
X9809464Y-17748589D02*
X9769464Y-17788589D01*
X9860907Y-21222152D02*
X9900907Y-21262152D01*
X9900907Y-21222152D02*
X9860907Y-21262152D01*
X10071045Y-16760605D02*
X10111045Y-16800606D01*
X10111045Y-16760605D02*
X10071045Y-16800606D01*
X10421303Y-22156099D02*
X10461303Y-22196099D01*
X10461303Y-22156099D02*
X10421303Y-22196099D01*
X10545358Y-15880696D02*
X10585358Y-15920696D01*
X10585358Y-15880696D02*
X10545358Y-15920696D01*
X10917013Y-23086453D02*
X10957013Y-23126453D01*
X10957013Y-23086453D02*
X10917013Y-23126453D01*
X11076834Y-15032804D02*
X11116834Y-15072804D01*
X11116834Y-15032804D02*
X11076834Y-15072804D01*
X11721616Y-23901889D02*
X11761616Y-23941889D01*
X11761616Y-23901889D02*
X11721616Y-23941889D01*
X11903173Y-14199592D02*
X11943173Y-14239592D01*
X11943173Y-14199592D02*
X11903173Y-14239592D01*
X12696872Y-24410171D02*
X12736872Y-24450171D01*
X12736872Y-24410171D02*
X12696872Y-24450171D01*
X12777694Y-13695368D02*
X12817694Y-13735368D01*
X12817694Y-13695368D02*
X12777694Y-13735368D01*
X13203330Y-19136937D02*
X13243330Y-19176937D01*
X13243330Y-19136937D02*
X13203330Y-19176937D01*
X13235687Y-18127528D02*
X13275687Y-18167528D01*
X13275687Y-18127528D02*
X13235687Y-18167528D01*
X13513495Y-12628047D02*
X13553495Y-12668047D01*
X13553495Y-12628047D02*
X13513495Y-12668047D01*
X13514103Y-24882505D02*
X13554103Y-24922505D01*
X13554103Y-24882505D02*
X13514103Y-24922505D01*
X13579553Y-20380780D02*
X13619553Y-20420780D01*
X13619553Y-20380780D02*
X13579553Y-20420780D01*
X13608021Y-17225938D02*
X13648021Y-17265938D01*
X13648021Y-17225938D02*
X13608021Y-17265938D01*
X14085969Y-16651202D02*
X14125969Y-16691202D01*
X14125969Y-16651202D02*
X14085969Y-16691202D01*
X14146257Y-21096429D02*
X14186257Y-21136429D01*
X14186257Y-21096429D02*
X14146257Y-21136429D01*
X14354627Y-11793336D02*
X14394627Y-11833336D01*
X14394627Y-11793336D02*
X14354627Y-11833336D01*
X14505524Y-25148320D02*
X14545524Y-25188320D01*
X14545524Y-25148320D02*
X14505524Y-25188320D01*
X14967081Y-21615488D02*
X15007081Y-21655488D01*
X15007081Y-21615488D02*
X14967081Y-21655488D01*
X15071351Y-16024380D02*
X15111351Y-16064380D01*
X15111351Y-16024380D02*
X15071351Y-16064380D01*
X15380201Y-25239919D02*
X15420201Y-25279919D01*
X15420201Y-25239919D02*
X15380201Y-25279919D01*
X15805836Y-21943628D02*
X15845836Y-21983628D01*
X15845836Y-21943628D02*
X15805836Y-21983628D01*
X15922580Y-19219584D02*
X15962580Y-19259584D01*
X15962580Y-19219584D02*
X15922580Y-19259584D01*
X16010586Y-22026783D02*
X16050586Y-22066783D01*
X16050586Y-22026783D02*
X16010586Y-22066783D01*
X16037527Y-10910881D02*
X16077527Y-10950881D01*
X16077527Y-10910881D02*
X16037527Y-10950881D01*
X16065599Y-15517894D02*
X16105599Y-15557894D01*
X16105599Y-15517894D02*
X16065599Y-15557894D01*
X16585478Y-15688518D02*
X16625478Y-15728518D01*
X16625478Y-15688518D02*
X16585478Y-15728518D01*
X16608671Y-19885353D02*
X16648671Y-19925353D01*
X16648671Y-19885353D02*
X16608671Y-19925353D01*
X16788277Y-11664310D02*
X16828277Y-11704310D01*
X16828277Y-11664310D02*
X16788277Y-11704310D01*
X16809829Y-18019381D02*
X16849829Y-18059381D01*
X16849829Y-18019381D02*
X16809829Y-18059381D01*
X17275699Y-20570186D02*
X17315699Y-20610186D01*
X17315699Y-20570186D02*
X17275699Y-20610186D01*
X17314364Y-25099827D02*
X17354364Y-25139827D01*
X17354364Y-25099827D02*
X17314364Y-25139827D01*
X17535434Y-12423997D02*
X17575434Y-12463997D01*
X17575434Y-12423997D02*
X17535434Y-12463997D01*
X17701339Y-17112787D02*
X17741339Y-17152787D01*
X17741339Y-17112787D02*
X17701339Y-17152787D01*
X17783289Y-21776369D02*
X17823289Y-21816369D01*
X17823289Y-21776369D02*
X17783289Y-21816369D01*
X17963021Y-21234725D02*
X18003021Y-21274725D01*
X18003021Y-21234725D02*
X17963021Y-21274725D01*
X18171236Y-16581311D02*
X18211236Y-16621311D01*
X18211236Y-16581311D02*
X18171236Y-16621311D01*
X18278999Y-13189942D02*
X18318999Y-13229942D01*
X18318999Y-13189942D02*
X18278999Y-13229942D01*
X18347093Y-24886097D02*
X18387093Y-24926097D01*
X18387093Y-24886097D02*
X18347093Y-24926097D01*
X18632821Y-16246165D02*
X18672821Y-16286165D01*
X18672821Y-16246165D02*
X18632821Y-16286165D01*
X19002808Y-15785222D02*
X19042808Y-15825222D01*
X19042808Y-15785222D02*
X19002808Y-15825222D01*
X19049194Y-13926592D02*
X19089194Y-13966592D01*
X19089194Y-13926592D02*
X19049194Y-13966592D01*
X19426676Y-24360009D02*
X19466676Y-24400009D01*
X19466676Y-24360009D02*
X19426676Y-24400009D01*
X19469286Y-21532869D02*
X19509286Y-21572869D01*
X19509286Y-21532869D02*
X19469286Y-21572869D01*
X19539213Y-15354453D02*
X19579213Y-15394453D01*
X19579213Y-15354453D02*
X19539213Y-15394453D01*
X19812473Y-14670157D02*
X19852473Y-14710157D01*
X19852473Y-14670157D02*
X19812473Y-14710157D01*
X20392951Y-23763720D02*
X20432951Y-23803720D01*
X20432951Y-23763720D02*
X20392951Y-23803720D01*
X20421330Y-14438467D02*
X20461330Y-14478467D01*
X20461330Y-14438467D02*
X20421330Y-14478467D01*
X20502511Y-20499645D02*
X20542511Y-20539645D01*
X20542511Y-20499645D02*
X20502511Y-20539645D01*
X21016181Y-20087076D02*
X21056181Y-20127076D01*
X21056181Y-20087076D02*
X21016181Y-20127076D01*
X21123011Y-19205187D02*
X21163011Y-19245187D01*
X21163011Y-19205187D02*
X21123011Y-19245187D01*
X21163457Y-22750564D02*
X21203457Y-22790564D01*
X21203457Y-22750564D02*
X21163457Y-22790564D01*
X21332185Y-13551217D02*
X21372185Y-13591217D01*
X21372185Y-13551217D02*
X21332185Y-13591217D01*
X21775911Y-21742979D02*
X21815911Y-21782979D01*
X21815911Y-21742979D02*
X21775911Y-21782979D01*
X22212351Y-12633280D02*
X22252351Y-12673280D01*
X22252351Y-12633280D02*
X22212351Y-12673280D01*
X22641636Y-21726843D02*
X22681636Y-21766843D01*
X22681636Y-21726843D02*
X22641636Y-21766843D01*
X22722430Y-20699501D02*
X22762430Y-20739501D01*
X22762430Y-20699501D02*
X22722430Y-20739501D01*
X22918199Y-18869325D02*
X22958199Y-18909325D01*
X22958199Y-18869325D02*
X22918199Y-18909325D01*
X23056467Y-16866728D02*
X23096467Y-16906728D01*
X23096467Y-16866728D02*
X23056467Y-16906728D01*
X23311535Y-16159112D02*
X23351535Y-16199112D01*
X23351535Y-16159112D02*
X23311535Y-16199112D01*
X23471383Y-22529706D02*
X23511383Y-22569706D01*
X23511383Y-22529706D02*
X23471383Y-22569706D01*
X23756955Y-13179407D02*
X23796955Y-13219407D01*
X23796955Y-13179407D02*
X23756955Y-13219407D01*
X23852146Y-16692539D02*
X23892146Y-16732539D01*
X23892146Y-16692539D02*
X23852146Y-16732539D01*
X23889863Y-17665943D02*
X23929863Y-17705943D01*
X23929863Y-17665943D02*
X23889863Y-17705943D01*
X24292179Y-23341521D02*
X24332179Y-23381521D01*
X24332179Y-23341521D02*
X24292179Y-23381521D01*
X24444815Y-13847566D02*
X24484815Y-13887566D01*
X24484815Y-13847566D02*
X24444815Y-13887566D01*
X24712454Y-18475962D02*
X24752454Y-18515962D01*
X24752454Y-18475962D02*
X24712454Y-18515962D01*
X24983658Y-24838692D02*
X25023658Y-24878692D01*
X25023658Y-24838692D02*
X24983658Y-24878692D01*
X25096809Y-24169501D02*
X25136809Y-24209501D01*
X25136809Y-24169501D02*
X25096809Y-24209501D01*
X25109382Y-14539017D02*
X25149382Y-14579017D01*
X25149382Y-14539017D02*
X25109382Y-14579017D01*
X25526037Y-19294989D02*
X25566037Y-19334989D01*
X25566037Y-19294989D02*
X25526037Y-19334989D01*
X25779309Y-15225109D02*
X25819309Y-15265109D01*
X25819309Y-15225109D02*
X25779309Y-15265109D01*
X26343269Y-20410493D02*
X26383269Y-20450493D01*
X26383269Y-20410493D02*
X26343269Y-20450493D01*
X26504914Y-25419496D02*
X26544914Y-25459496D01*
X26544914Y-25419496D02*
X26504914Y-25459496D01*
X27144308Y-21211532D02*
X27184308Y-21251532D01*
X27184308Y-21211532D02*
X27144308Y-21251532D01*
X27542645Y-24647222D02*
X27582645Y-24687222D01*
X27582645Y-24647222D02*
X27542645Y-24687222D01*
X27948939Y-21769920D02*
X27988939Y-21809920D01*
X27988939Y-21769920D02*
X27948939Y-21809920D01*
X28212958Y-21613692D02*
X28252958Y-21653692D01*
X28252958Y-21613692D02*
X28212958Y-21653692D01*
X28558427Y-23605512D02*
X28598427Y-23645512D01*
X28598427Y-23605512D02*
X28558427Y-23645512D01*
X29590374Y-22579967D02*
X29630374Y-22619967D01*
X29630374Y-22579967D02*
X29590374Y-22619967D01*
D13*
X22811746Y-20267731D02*
G75*
G03*
X22811746Y-20267731I-40000J0D01*
G01*
X22991351Y-20447336D02*
G75*
G03*
X22991351Y-20447336I-40000J0D01*
G01*
X23170957Y-20626941D02*
G75*
G03*
X23170957Y-20626941I-40000J0D01*
G01*
X23350562Y-20806546D02*
G75*
G03*
X23350562Y-20806546I-40000J0D01*
G01*
X23530167Y-20986151D02*
G75*
G03*
X23530167Y-20986151I-40000J0D01*
G01*
X23709772Y-21165757D02*
G75*
G03*
X23709772Y-21165757I-40000J0D01*
G01*
X23889377Y-19190100D02*
G75*
G03*
X23889377Y-19190100I-40000J0D01*
G01*
X23889377Y-21345362D02*
G75*
G03*
X23889377Y-21345362I-40000J0D01*
G01*
X24068982Y-19369705D02*
G75*
G03*
X24068982Y-19369705I-40000J0D01*
G01*
X24068982Y-21524967D02*
G75*
G03*
X24068982Y-21524967I-40000J0D01*
G01*
X24248587Y-19549310D02*
G75*
G03*
X24248587Y-19549310I-40000J0D01*
G01*
X24248587Y-21704572D02*
G75*
G03*
X24248587Y-21704572I-40000J0D01*
G01*
X24428192Y-19728916D02*
G75*
G03*
X24428192Y-19728916I-40000J0D01*
G01*
X24428192Y-21884177D02*
G75*
G03*
X24428192Y-21884177I-40000J0D01*
G01*
X24607798Y-19908521D02*
G75*
G03*
X24607798Y-19908521I-40000J0D01*
G01*
X24607798Y-22063782D02*
G75*
G03*
X24607798Y-22063782I-40000J0D01*
G01*
X24787403Y-20088126D02*
G75*
G03*
X24787403Y-20088126I-40000J0D01*
G01*
X24787403Y-22243387D02*
G75*
G03*
X24787403Y-22243387I-40000J0D01*
G01*
X24967008Y-20267731D02*
G75*
G03*
X24967008Y-20267731I-40000J0D01*
G01*
X24967008Y-22422992D02*
G75*
G03*
X24967008Y-22422992I-40000J0D01*
G01*
X25146613Y-20447336D02*
G75*
G03*
X25146613Y-20447336I-40000J0D01*
G01*
X25146613Y-22602597D02*
G75*
G03*
X25146613Y-22602597I-40000J0D01*
G01*
X25326218Y-20626941D02*
G75*
G03*
X25326218Y-20626941I-40000J0D01*
G01*
X25505823Y-20806546D02*
G75*
G03*
X25505823Y-20806546I-40000J0D01*
G01*
X25685428Y-20986151D02*
G75*
G03*
X25685428Y-20986151I-40000J0D01*
G01*
X25865033Y-21165757D02*
G75*
G03*
X25865033Y-21165757I-40000J0D01*
G01*
X26044639Y-21345362D02*
G75*
G03*
X26044639Y-21345362I-40000J0D01*
G01*
X26224244Y-21524967D02*
G75*
G03*
X26224244Y-21524967I-40000J0D01*
G01*
D10*
X20865556Y-17183366D02*
X20865556Y-17283366D01*
X20815556Y-17233366D02*
X20915556Y-17233366D01*
D11*
X7282484Y-31386202D02*
X7282484Y-31186202D01*
X7330103Y-31186202D01*
X7358674Y-31195726D01*
X7377722Y-31214774D01*
X7387246Y-31233821D01*
X7396769Y-31271917D01*
X7396769Y-31300488D01*
X7387246Y-31338583D01*
X7377722Y-31357631D01*
X7358674Y-31376679D01*
X7330103Y-31386202D01*
X7282484Y-31386202D01*
X7482484Y-31386202D02*
X7482484Y-31252869D01*
X7482484Y-31290964D02*
X7492007Y-31271917D01*
X7501531Y-31262393D01*
X7520579Y-31252869D01*
X7539627Y-31252869D01*
X7606293Y-31386202D02*
X7606293Y-31252869D01*
X7606293Y-31186202D02*
X7596769Y-31195726D01*
X7606293Y-31205250D01*
X7615817Y-31195726D01*
X7606293Y-31186202D01*
X7606293Y-31205250D01*
X7730103Y-31386202D02*
X7711055Y-31376679D01*
X7701531Y-31357631D01*
X7701531Y-31186202D01*
X7834865Y-31386202D02*
X7815817Y-31376679D01*
X7806293Y-31357631D01*
X7806293Y-31186202D01*
X8063436Y-31386202D02*
X8063436Y-31186202D01*
X8130103Y-31329060D01*
X8196769Y-31186202D01*
X8196769Y-31386202D01*
X8377722Y-31386202D02*
X8377722Y-31281440D01*
X8368198Y-31262393D01*
X8349150Y-31252869D01*
X8311055Y-31252869D01*
X8292007Y-31262393D01*
X8377722Y-31376679D02*
X8358674Y-31386202D01*
X8311055Y-31386202D01*
X8292007Y-31376679D01*
X8282484Y-31357631D01*
X8282484Y-31338583D01*
X8292007Y-31319536D01*
X8311055Y-31310012D01*
X8358674Y-31310012D01*
X8377722Y-31300488D01*
X8472960Y-31252869D02*
X8472960Y-31452869D01*
X8472960Y-31262393D02*
X8492008Y-31252869D01*
X8530103Y-31252869D01*
X8549150Y-31262393D01*
X8558674Y-31271917D01*
X8568198Y-31290964D01*
X8568198Y-31348107D01*
X8558674Y-31367155D01*
X8549150Y-31376679D01*
X8530103Y-31386202D01*
X8492008Y-31386202D01*
X8472960Y-31376679D01*
X8653912Y-31367155D02*
X8663436Y-31376679D01*
X8653912Y-31386202D01*
X8644389Y-31376679D01*
X8653912Y-31367155D01*
X8653912Y-31386202D01*
X8653912Y-31262393D02*
X8663436Y-31271917D01*
X8653912Y-31281440D01*
X8644389Y-31271917D01*
X8653912Y-31262393D01*
X8653912Y-31281440D01*
D12*
X6984865Y-31695726D02*
X7024865Y-31735726D01*
X7024865Y-31695726D02*
X6984865Y-31735726D01*
D11*
X7320579Y-31606202D02*
X7339627Y-31606202D01*
X7358674Y-31615726D01*
X7368198Y-31625250D01*
X7377722Y-31644298D01*
X7387246Y-31682393D01*
X7387246Y-31730012D01*
X7377722Y-31768107D01*
X7368198Y-31787155D01*
X7358674Y-31796679D01*
X7339627Y-31806202D01*
X7320579Y-31806202D01*
X7301531Y-31796679D01*
X7292007Y-31787155D01*
X7282484Y-31768107D01*
X7272960Y-31730012D01*
X7272960Y-31682393D01*
X7282484Y-31644298D01*
X7292007Y-31625250D01*
X7301531Y-31615726D01*
X7320579Y-31606202D01*
X7472960Y-31787155D02*
X7482484Y-31796679D01*
X7472960Y-31806202D01*
X7463436Y-31796679D01*
X7472960Y-31787155D01*
X7472960Y-31806202D01*
X7653912Y-31672869D02*
X7653912Y-31806202D01*
X7606293Y-31596679D02*
X7558674Y-31739536D01*
X7682484Y-31739536D01*
X7796769Y-31606202D02*
X7815817Y-31606202D01*
X7834865Y-31615726D01*
X7844388Y-31625250D01*
X7853912Y-31644298D01*
X7863436Y-31682393D01*
X7863436Y-31730012D01*
X7853912Y-31768107D01*
X7844388Y-31787155D01*
X7834865Y-31796679D01*
X7815817Y-31806202D01*
X7796769Y-31806202D01*
X7777722Y-31796679D01*
X7768198Y-31787155D01*
X7758674Y-31768107D01*
X7749150Y-31730012D01*
X7749150Y-31682393D01*
X7758674Y-31644298D01*
X7768198Y-31625250D01*
X7777722Y-31615726D01*
X7796769Y-31606202D01*
X7987246Y-31606202D02*
X8006293Y-31606202D01*
X8025341Y-31615726D01*
X8034865Y-31625250D01*
X8044388Y-31644298D01*
X8053912Y-31682393D01*
X8053912Y-31730012D01*
X8044388Y-31768107D01*
X8034865Y-31787155D01*
X8025341Y-31796679D01*
X8006293Y-31806202D01*
X7987246Y-31806202D01*
X7968198Y-31796679D01*
X7958674Y-31787155D01*
X7949150Y-31768107D01*
X7939627Y-31730012D01*
X7939627Y-31682393D01*
X7949150Y-31644298D01*
X7958674Y-31625250D01*
X7968198Y-31615726D01*
X7987246Y-31606202D01*
X8139627Y-31806202D02*
X8139627Y-31672869D01*
X8139627Y-31691917D02*
X8149150Y-31682393D01*
X8168198Y-31672869D01*
X8196769Y-31672869D01*
X8215817Y-31682393D01*
X8225341Y-31701440D01*
X8225341Y-31806202D01*
X8225341Y-31701440D02*
X8234865Y-31682393D01*
X8253912Y-31672869D01*
X8282484Y-31672869D01*
X8301531Y-31682393D01*
X8311055Y-31701440D01*
X8311055Y-31806202D01*
X8406293Y-31806202D02*
X8406293Y-31672869D01*
X8406293Y-31691917D02*
X8415817Y-31682393D01*
X8434865Y-31672869D01*
X8463436Y-31672869D01*
X8482484Y-31682393D01*
X8492008Y-31701440D01*
X8492008Y-31806202D01*
X8492008Y-31701440D02*
X8501531Y-31682393D01*
X8520579Y-31672869D01*
X8549150Y-31672869D01*
X8568198Y-31682393D01*
X8577722Y-31701440D01*
X8577722Y-31806202D01*
X8968198Y-31596679D02*
X8796769Y-31853821D01*
X9225341Y-31606202D02*
X9244389Y-31606202D01*
X9263436Y-31615726D01*
X9272960Y-31625250D01*
X9282484Y-31644298D01*
X9292008Y-31682393D01*
X9292008Y-31730012D01*
X9282484Y-31768107D01*
X9272960Y-31787155D01*
X9263436Y-31796679D01*
X9244389Y-31806202D01*
X9225341Y-31806202D01*
X9206293Y-31796679D01*
X9196769Y-31787155D01*
X9187246Y-31768107D01*
X9177722Y-31730012D01*
X9177722Y-31682393D01*
X9187246Y-31644298D01*
X9196769Y-31625250D01*
X9206293Y-31615726D01*
X9225341Y-31606202D01*
X9377722Y-31787155D02*
X9387246Y-31796679D01*
X9377722Y-31806202D01*
X9368198Y-31796679D01*
X9377722Y-31787155D01*
X9377722Y-31806202D01*
X9511055Y-31606202D02*
X9530103Y-31606202D01*
X9549150Y-31615726D01*
X9558674Y-31625250D01*
X9568198Y-31644298D01*
X9577722Y-31682393D01*
X9577722Y-31730012D01*
X9568198Y-31768107D01*
X9558674Y-31787155D01*
X9549150Y-31796679D01*
X9530103Y-31806202D01*
X9511055Y-31806202D01*
X9492008Y-31796679D01*
X9482484Y-31787155D01*
X9472960Y-31768107D01*
X9463436Y-31730012D01*
X9463436Y-31682393D01*
X9472960Y-31644298D01*
X9482484Y-31625250D01*
X9492008Y-31615726D01*
X9511055Y-31606202D01*
X9768198Y-31806202D02*
X9653912Y-31806202D01*
X9711055Y-31806202D02*
X9711055Y-31606202D01*
X9692008Y-31634774D01*
X9672960Y-31653821D01*
X9653912Y-31663345D01*
X9949150Y-31606202D02*
X9853912Y-31606202D01*
X9844389Y-31701440D01*
X9853912Y-31691917D01*
X9872960Y-31682393D01*
X9920579Y-31682393D01*
X9939627Y-31691917D01*
X9949150Y-31701440D01*
X9958674Y-31720488D01*
X9958674Y-31768107D01*
X9949150Y-31787155D01*
X9939627Y-31796679D01*
X9920579Y-31806202D01*
X9872960Y-31806202D01*
X9853912Y-31796679D01*
X9844389Y-31787155D01*
X10025341Y-31606202D02*
X10158674Y-31606202D01*
X10072960Y-31806202D01*
X10225341Y-31606202D02*
X10225341Y-31644298D01*
X10301531Y-31606202D02*
X10301531Y-31644298D01*
X10596769Y-31882393D02*
X10587246Y-31872869D01*
X10568198Y-31844298D01*
X10558674Y-31825250D01*
X10549150Y-31796679D01*
X10539627Y-31749060D01*
X10539627Y-31710964D01*
X10549150Y-31663345D01*
X10558674Y-31634774D01*
X10568198Y-31615726D01*
X10587246Y-31587155D01*
X10596769Y-31577631D01*
X10701531Y-31691917D02*
X10682484Y-31682393D01*
X10672960Y-31672869D01*
X10663436Y-31653821D01*
X10663436Y-31644298D01*
X10672960Y-31625250D01*
X10682484Y-31615726D01*
X10701531Y-31606202D01*
X10739627Y-31606202D01*
X10758674Y-31615726D01*
X10768198Y-31625250D01*
X10777722Y-31644298D01*
X10777722Y-31653821D01*
X10768198Y-31672869D01*
X10758674Y-31682393D01*
X10739627Y-31691917D01*
X10701531Y-31691917D01*
X10682484Y-31701440D01*
X10672960Y-31710964D01*
X10663436Y-31730012D01*
X10663436Y-31768107D01*
X10672960Y-31787155D01*
X10682484Y-31796679D01*
X10701531Y-31806202D01*
X10739627Y-31806202D01*
X10758674Y-31796679D01*
X10768198Y-31787155D01*
X10777722Y-31768107D01*
X10777722Y-31730012D01*
X10768198Y-31710964D01*
X10758674Y-31701440D01*
X10739627Y-31691917D01*
X10958674Y-31606202D02*
X10863436Y-31606202D01*
X10853912Y-31701440D01*
X10863436Y-31691917D01*
X10882484Y-31682393D01*
X10930103Y-31682393D01*
X10949150Y-31691917D01*
X10958674Y-31701440D01*
X10968198Y-31720488D01*
X10968198Y-31768107D01*
X10958674Y-31787155D01*
X10949150Y-31796679D01*
X10930103Y-31806202D01*
X10882484Y-31806202D01*
X10863436Y-31796679D01*
X10853912Y-31787155D01*
X11206293Y-31806202D02*
X11206293Y-31606202D01*
X11292007Y-31806202D02*
X11292007Y-31701440D01*
X11282484Y-31682393D01*
X11263436Y-31672869D01*
X11234865Y-31672869D01*
X11215817Y-31682393D01*
X11206293Y-31691917D01*
X11415817Y-31806202D02*
X11396769Y-31796679D01*
X11387246Y-31787155D01*
X11377722Y-31768107D01*
X11377722Y-31710964D01*
X11387246Y-31691917D01*
X11396769Y-31682393D01*
X11415817Y-31672869D01*
X11444388Y-31672869D01*
X11463436Y-31682393D01*
X11472960Y-31691917D01*
X11482484Y-31710964D01*
X11482484Y-31768107D01*
X11472960Y-31787155D01*
X11463436Y-31796679D01*
X11444388Y-31806202D01*
X11415817Y-31806202D01*
X11596769Y-31806202D02*
X11577722Y-31796679D01*
X11568198Y-31777631D01*
X11568198Y-31606202D01*
X11749150Y-31796679D02*
X11730103Y-31806202D01*
X11692007Y-31806202D01*
X11672960Y-31796679D01*
X11663436Y-31777631D01*
X11663436Y-31701440D01*
X11672960Y-31682393D01*
X11692007Y-31672869D01*
X11730103Y-31672869D01*
X11749150Y-31682393D01*
X11758674Y-31701440D01*
X11758674Y-31720488D01*
X11663436Y-31739536D01*
X11834865Y-31796679D02*
X11853912Y-31806202D01*
X11892007Y-31806202D01*
X11911055Y-31796679D01*
X11920579Y-31777631D01*
X11920579Y-31768107D01*
X11911055Y-31749060D01*
X11892007Y-31739536D01*
X11863436Y-31739536D01*
X11844388Y-31730012D01*
X11834865Y-31710964D01*
X11834865Y-31701440D01*
X11844388Y-31682393D01*
X11863436Y-31672869D01*
X11892007Y-31672869D01*
X11911055Y-31682393D01*
X11987246Y-31882393D02*
X11996769Y-31872869D01*
X12015817Y-31844298D01*
X12025341Y-31825250D01*
X12034865Y-31796679D01*
X12044388Y-31749060D01*
X12044388Y-31710964D01*
X12034865Y-31663345D01*
X12025341Y-31634774D01*
X12015817Y-31615726D01*
X11996769Y-31587155D01*
X11987246Y-31577631D01*
D13*
X7024865Y-31979726D02*
G75*
G03*
X7024865Y-31979726I-40000J0D01*
G01*
D11*
X7320579Y-31870202D02*
X7339627Y-31870202D01*
X7358674Y-31879726D01*
X7368198Y-31889250D01*
X7377722Y-31908298D01*
X7387246Y-31946393D01*
X7387246Y-31994012D01*
X7377722Y-32032107D01*
X7368198Y-32051155D01*
X7358674Y-32060679D01*
X7339627Y-32070202D01*
X7320579Y-32070202D01*
X7301531Y-32060679D01*
X7292007Y-32051155D01*
X7282484Y-32032107D01*
X7272960Y-31994012D01*
X7272960Y-31946393D01*
X7282484Y-31908298D01*
X7292007Y-31889250D01*
X7301531Y-31879726D01*
X7320579Y-31870202D01*
X7472960Y-32051155D02*
X7482484Y-32060679D01*
X7472960Y-32070202D01*
X7463436Y-32060679D01*
X7472960Y-32051155D01*
X7472960Y-32070202D01*
X7596769Y-31955917D02*
X7577722Y-31946393D01*
X7568198Y-31936869D01*
X7558674Y-31917821D01*
X7558674Y-31908298D01*
X7568198Y-31889250D01*
X7577722Y-31879726D01*
X7596769Y-31870202D01*
X7634865Y-31870202D01*
X7653912Y-31879726D01*
X7663436Y-31889250D01*
X7672960Y-31908298D01*
X7672960Y-31917821D01*
X7663436Y-31936869D01*
X7653912Y-31946393D01*
X7634865Y-31955917D01*
X7596769Y-31955917D01*
X7577722Y-31965440D01*
X7568198Y-31974964D01*
X7558674Y-31994012D01*
X7558674Y-32032107D01*
X7568198Y-32051155D01*
X7577722Y-32060679D01*
X7596769Y-32070202D01*
X7634865Y-32070202D01*
X7653912Y-32060679D01*
X7663436Y-32051155D01*
X7672960Y-32032107D01*
X7672960Y-31994012D01*
X7663436Y-31974964D01*
X7653912Y-31965440D01*
X7634865Y-31955917D01*
X7796769Y-31870202D02*
X7815817Y-31870202D01*
X7834865Y-31879726D01*
X7844388Y-31889250D01*
X7853912Y-31908298D01*
X7863436Y-31946393D01*
X7863436Y-31994012D01*
X7853912Y-32032107D01*
X7844388Y-32051155D01*
X7834865Y-32060679D01*
X7815817Y-32070202D01*
X7796769Y-32070202D01*
X7777722Y-32060679D01*
X7768198Y-32051155D01*
X7758674Y-32032107D01*
X7749150Y-31994012D01*
X7749150Y-31946393D01*
X7758674Y-31908298D01*
X7768198Y-31889250D01*
X7777722Y-31879726D01*
X7796769Y-31870202D01*
X7987246Y-31870202D02*
X8006293Y-31870202D01*
X8025341Y-31879726D01*
X8034865Y-31889250D01*
X8044388Y-31908298D01*
X8053912Y-31946393D01*
X8053912Y-31994012D01*
X8044388Y-32032107D01*
X8034865Y-32051155D01*
X8025341Y-32060679D01*
X8006293Y-32070202D01*
X7987246Y-32070202D01*
X7968198Y-32060679D01*
X7958674Y-32051155D01*
X7949150Y-32032107D01*
X7939627Y-31994012D01*
X7939627Y-31946393D01*
X7949150Y-31908298D01*
X7958674Y-31889250D01*
X7968198Y-31879726D01*
X7987246Y-31870202D01*
X8139627Y-32070202D02*
X8139627Y-31936869D01*
X8139627Y-31955917D02*
X8149150Y-31946393D01*
X8168198Y-31936869D01*
X8196769Y-31936869D01*
X8215817Y-31946393D01*
X8225341Y-31965440D01*
X8225341Y-32070202D01*
X8225341Y-31965440D02*
X8234865Y-31946393D01*
X8253912Y-31936869D01*
X8282484Y-31936869D01*
X8301531Y-31946393D01*
X8311055Y-31965440D01*
X8311055Y-32070202D01*
X8406293Y-32070202D02*
X8406293Y-31936869D01*
X8406293Y-31955917D02*
X8415817Y-31946393D01*
X8434865Y-31936869D01*
X8463436Y-31936869D01*
X8482484Y-31946393D01*
X8492008Y-31965440D01*
X8492008Y-32070202D01*
X8492008Y-31965440D02*
X8501531Y-31946393D01*
X8520579Y-31936869D01*
X8549150Y-31936869D01*
X8568198Y-31946393D01*
X8577722Y-31965440D01*
X8577722Y-32070202D01*
X8968198Y-31860679D02*
X8796769Y-32117821D01*
X9225341Y-31870202D02*
X9244389Y-31870202D01*
X9263436Y-31879726D01*
X9272960Y-31889250D01*
X9282484Y-31908298D01*
X9292008Y-31946393D01*
X9292008Y-31994012D01*
X9282484Y-32032107D01*
X9272960Y-32051155D01*
X9263436Y-32060679D01*
X9244389Y-32070202D01*
X9225341Y-32070202D01*
X9206293Y-32060679D01*
X9196769Y-32051155D01*
X9187246Y-32032107D01*
X9177722Y-31994012D01*
X9177722Y-31946393D01*
X9187246Y-31908298D01*
X9196769Y-31889250D01*
X9206293Y-31879726D01*
X9225341Y-31870202D01*
X9377722Y-32051155D02*
X9387246Y-32060679D01*
X9377722Y-32070202D01*
X9368198Y-32060679D01*
X9377722Y-32051155D01*
X9377722Y-32070202D01*
X9511055Y-31870202D02*
X9530103Y-31870202D01*
X9549150Y-31879726D01*
X9558674Y-31889250D01*
X9568198Y-31908298D01*
X9577722Y-31946393D01*
X9577722Y-31994012D01*
X9568198Y-32032107D01*
X9558674Y-32051155D01*
X9549150Y-32060679D01*
X9530103Y-32070202D01*
X9511055Y-32070202D01*
X9492008Y-32060679D01*
X9482484Y-32051155D01*
X9472960Y-32032107D01*
X9463436Y-31994012D01*
X9463436Y-31946393D01*
X9472960Y-31908298D01*
X9482484Y-31889250D01*
X9492008Y-31879726D01*
X9511055Y-31870202D01*
X9644389Y-31870202D02*
X9768198Y-31870202D01*
X9701531Y-31946393D01*
X9730103Y-31946393D01*
X9749150Y-31955917D01*
X9758674Y-31965440D01*
X9768198Y-31984488D01*
X9768198Y-32032107D01*
X9758674Y-32051155D01*
X9749150Y-32060679D01*
X9730103Y-32070202D01*
X9672960Y-32070202D01*
X9653912Y-32060679D01*
X9644389Y-32051155D01*
X9958674Y-32070202D02*
X9844389Y-32070202D01*
X9901531Y-32070202D02*
X9901531Y-31870202D01*
X9882484Y-31898774D01*
X9863436Y-31917821D01*
X9844389Y-31927345D01*
X10139627Y-31870202D02*
X10044389Y-31870202D01*
X10034865Y-31965440D01*
X10044389Y-31955917D01*
X10063436Y-31946393D01*
X10111055Y-31946393D01*
X10130103Y-31955917D01*
X10139627Y-31965440D01*
X10149150Y-31984488D01*
X10149150Y-32032107D01*
X10139627Y-32051155D01*
X10130103Y-32060679D01*
X10111055Y-32070202D01*
X10063436Y-32070202D01*
X10044389Y-32060679D01*
X10034865Y-32051155D01*
X10225341Y-31870202D02*
X10225341Y-31908298D01*
X10301531Y-31870202D02*
X10301531Y-31908298D01*
X10596769Y-32146393D02*
X10587246Y-32136869D01*
X10568198Y-32108298D01*
X10558674Y-32089250D01*
X10549150Y-32060679D01*
X10539627Y-32013060D01*
X10539627Y-31974964D01*
X10549150Y-31927345D01*
X10558674Y-31898774D01*
X10568198Y-31879726D01*
X10587246Y-31851155D01*
X10596769Y-31841631D01*
X10663436Y-31889250D02*
X10672960Y-31879726D01*
X10692008Y-31870202D01*
X10739627Y-31870202D01*
X10758674Y-31879726D01*
X10768198Y-31889250D01*
X10777722Y-31908298D01*
X10777722Y-31927345D01*
X10768198Y-31955917D01*
X10653912Y-32070202D01*
X10777722Y-32070202D01*
X10892008Y-31955917D02*
X10872960Y-31946393D01*
X10863436Y-31936869D01*
X10853912Y-31917821D01*
X10853912Y-31908298D01*
X10863436Y-31889250D01*
X10872960Y-31879726D01*
X10892008Y-31870202D01*
X10930103Y-31870202D01*
X10949150Y-31879726D01*
X10958674Y-31889250D01*
X10968198Y-31908298D01*
X10968198Y-31917821D01*
X10958674Y-31936869D01*
X10949150Y-31946393D01*
X10930103Y-31955917D01*
X10892008Y-31955917D01*
X10872960Y-31965440D01*
X10863436Y-31974964D01*
X10853912Y-31994012D01*
X10853912Y-32032107D01*
X10863436Y-32051155D01*
X10872960Y-32060679D01*
X10892008Y-32070202D01*
X10930103Y-32070202D01*
X10949150Y-32060679D01*
X10958674Y-32051155D01*
X10968198Y-32032107D01*
X10968198Y-31994012D01*
X10958674Y-31974964D01*
X10949150Y-31965440D01*
X10930103Y-31955917D01*
X11206293Y-32070202D02*
X11206293Y-31870202D01*
X11292007Y-32070202D02*
X11292007Y-31965440D01*
X11282484Y-31946393D01*
X11263436Y-31936869D01*
X11234865Y-31936869D01*
X11215817Y-31946393D01*
X11206293Y-31955917D01*
X11415817Y-32070202D02*
X11396769Y-32060679D01*
X11387246Y-32051155D01*
X11377722Y-32032107D01*
X11377722Y-31974964D01*
X11387246Y-31955917D01*
X11396769Y-31946393D01*
X11415817Y-31936869D01*
X11444388Y-31936869D01*
X11463436Y-31946393D01*
X11472960Y-31955917D01*
X11482484Y-31974964D01*
X11482484Y-32032107D01*
X11472960Y-32051155D01*
X11463436Y-32060679D01*
X11444388Y-32070202D01*
X11415817Y-32070202D01*
X11596769Y-32070202D02*
X11577722Y-32060679D01*
X11568198Y-32041631D01*
X11568198Y-31870202D01*
X11749150Y-32060679D02*
X11730103Y-32070202D01*
X11692007Y-32070202D01*
X11672960Y-32060679D01*
X11663436Y-32041631D01*
X11663436Y-31965440D01*
X11672960Y-31946393D01*
X11692007Y-31936869D01*
X11730103Y-31936869D01*
X11749150Y-31946393D01*
X11758674Y-31965440D01*
X11758674Y-31984488D01*
X11663436Y-32003536D01*
X11834865Y-32060679D02*
X11853912Y-32070202D01*
X11892007Y-32070202D01*
X11911055Y-32060679D01*
X11920579Y-32041631D01*
X11920579Y-32032107D01*
X11911055Y-32013060D01*
X11892007Y-32003536D01*
X11863436Y-32003536D01*
X11844388Y-31994012D01*
X11834865Y-31974964D01*
X11834865Y-31965440D01*
X11844388Y-31946393D01*
X11863436Y-31936869D01*
X11892007Y-31936869D01*
X11911055Y-31946393D01*
X11987246Y-32146393D02*
X11996769Y-32136869D01*
X12015817Y-32108298D01*
X12025341Y-32089250D01*
X12034865Y-32060679D01*
X12044388Y-32013060D01*
X12044388Y-31974964D01*
X12034865Y-31927345D01*
X12025341Y-31898774D01*
X12015817Y-31879726D01*
X11996769Y-31851155D01*
X11987246Y-31841631D01*
D10*
X6974865Y-32193726D02*
X6974865Y-32293726D01*
X6924865Y-32243726D02*
X7024865Y-32243726D01*
D11*
X7387246Y-32334202D02*
X7272960Y-32334202D01*
X7330103Y-32334202D02*
X7330103Y-32134202D01*
X7311055Y-32162774D01*
X7292007Y-32181821D01*
X7272960Y-32191345D01*
X7472960Y-32315155D02*
X7482484Y-32324679D01*
X7472960Y-32334202D01*
X7463436Y-32324679D01*
X7472960Y-32315155D01*
X7472960Y-32334202D01*
X7606293Y-32134202D02*
X7625341Y-32134202D01*
X7644388Y-32143726D01*
X7653912Y-32153250D01*
X7663436Y-32172298D01*
X7672960Y-32210393D01*
X7672960Y-32258012D01*
X7663436Y-32296107D01*
X7653912Y-32315155D01*
X7644388Y-32324679D01*
X7625341Y-32334202D01*
X7606293Y-32334202D01*
X7587246Y-32324679D01*
X7577722Y-32315155D01*
X7568198Y-32296107D01*
X7558674Y-32258012D01*
X7558674Y-32210393D01*
X7568198Y-32172298D01*
X7577722Y-32153250D01*
X7587246Y-32143726D01*
X7606293Y-32134202D01*
X7796769Y-32134202D02*
X7815817Y-32134202D01*
X7834865Y-32143726D01*
X7844388Y-32153250D01*
X7853912Y-32172298D01*
X7863436Y-32210393D01*
X7863436Y-32258012D01*
X7853912Y-32296107D01*
X7844388Y-32315155D01*
X7834865Y-32324679D01*
X7815817Y-32334202D01*
X7796769Y-32334202D01*
X7777722Y-32324679D01*
X7768198Y-32315155D01*
X7758674Y-32296107D01*
X7749150Y-32258012D01*
X7749150Y-32210393D01*
X7758674Y-32172298D01*
X7768198Y-32153250D01*
X7777722Y-32143726D01*
X7796769Y-32134202D01*
X7987246Y-32134202D02*
X8006293Y-32134202D01*
X8025341Y-32143726D01*
X8034865Y-32153250D01*
X8044388Y-32172298D01*
X8053912Y-32210393D01*
X8053912Y-32258012D01*
X8044388Y-32296107D01*
X8034865Y-32315155D01*
X8025341Y-32324679D01*
X8006293Y-32334202D01*
X7987246Y-32334202D01*
X7968198Y-32324679D01*
X7958674Y-32315155D01*
X7949150Y-32296107D01*
X7939627Y-32258012D01*
X7939627Y-32210393D01*
X7949150Y-32172298D01*
X7958674Y-32153250D01*
X7968198Y-32143726D01*
X7987246Y-32134202D01*
X8139627Y-32334202D02*
X8139627Y-32200869D01*
X8139627Y-32219917D02*
X8149150Y-32210393D01*
X8168198Y-32200869D01*
X8196769Y-32200869D01*
X8215817Y-32210393D01*
X8225341Y-32229440D01*
X8225341Y-32334202D01*
X8225341Y-32229440D02*
X8234865Y-32210393D01*
X8253912Y-32200869D01*
X8282484Y-32200869D01*
X8301531Y-32210393D01*
X8311055Y-32229440D01*
X8311055Y-32334202D01*
X8406293Y-32334202D02*
X8406293Y-32200869D01*
X8406293Y-32219917D02*
X8415817Y-32210393D01*
X8434865Y-32200869D01*
X8463436Y-32200869D01*
X8482484Y-32210393D01*
X8492008Y-32229440D01*
X8492008Y-32334202D01*
X8492008Y-32229440D02*
X8501531Y-32210393D01*
X8520579Y-32200869D01*
X8549150Y-32200869D01*
X8568198Y-32210393D01*
X8577722Y-32229440D01*
X8577722Y-32334202D01*
X8968198Y-32124679D02*
X8796769Y-32381821D01*
X9225341Y-32134202D02*
X9244389Y-32134202D01*
X9263436Y-32143726D01*
X9272960Y-32153250D01*
X9282484Y-32172298D01*
X9292008Y-32210393D01*
X9292008Y-32258012D01*
X9282484Y-32296107D01*
X9272960Y-32315155D01*
X9263436Y-32324679D01*
X9244389Y-32334202D01*
X9225341Y-32334202D01*
X9206293Y-32324679D01*
X9196769Y-32315155D01*
X9187246Y-32296107D01*
X9177722Y-32258012D01*
X9177722Y-32210393D01*
X9187246Y-32172298D01*
X9196769Y-32153250D01*
X9206293Y-32143726D01*
X9225341Y-32134202D01*
X9377722Y-32315155D02*
X9387246Y-32324679D01*
X9377722Y-32334202D01*
X9368198Y-32324679D01*
X9377722Y-32315155D01*
X9377722Y-32334202D01*
X9511055Y-32134202D02*
X9530103Y-32134202D01*
X9549150Y-32143726D01*
X9558674Y-32153250D01*
X9568198Y-32172298D01*
X9577722Y-32210393D01*
X9577722Y-32258012D01*
X9568198Y-32296107D01*
X9558674Y-32315155D01*
X9549150Y-32324679D01*
X9530103Y-32334202D01*
X9511055Y-32334202D01*
X9492008Y-32324679D01*
X9482484Y-32315155D01*
X9472960Y-32296107D01*
X9463436Y-32258012D01*
X9463436Y-32210393D01*
X9472960Y-32172298D01*
X9482484Y-32153250D01*
X9492008Y-32143726D01*
X9511055Y-32134202D01*
X9644389Y-32134202D02*
X9768198Y-32134202D01*
X9701531Y-32210393D01*
X9730103Y-32210393D01*
X9749150Y-32219917D01*
X9758674Y-32229440D01*
X9768198Y-32248488D01*
X9768198Y-32296107D01*
X9758674Y-32315155D01*
X9749150Y-32324679D01*
X9730103Y-32334202D01*
X9672960Y-32334202D01*
X9653912Y-32324679D01*
X9644389Y-32315155D01*
X9863436Y-32334202D02*
X9901531Y-32334202D01*
X9920579Y-32324679D01*
X9930103Y-32315155D01*
X9949150Y-32286583D01*
X9958674Y-32248488D01*
X9958674Y-32172298D01*
X9949150Y-32153250D01*
X9939627Y-32143726D01*
X9920579Y-32134202D01*
X9882484Y-32134202D01*
X9863436Y-32143726D01*
X9853912Y-32153250D01*
X9844389Y-32172298D01*
X9844389Y-32219917D01*
X9853912Y-32238964D01*
X9863436Y-32248488D01*
X9882484Y-32258012D01*
X9920579Y-32258012D01*
X9939627Y-32248488D01*
X9949150Y-32238964D01*
X9958674Y-32219917D01*
X10130103Y-32200869D02*
X10130103Y-32334202D01*
X10082484Y-32124679D02*
X10034865Y-32267536D01*
X10158674Y-32267536D01*
X10225341Y-32134202D02*
X10225341Y-32172298D01*
X10301531Y-32134202D02*
X10301531Y-32172298D01*
X10596769Y-32410393D02*
X10587246Y-32400869D01*
X10568198Y-32372298D01*
X10558674Y-32353250D01*
X10549150Y-32324679D01*
X10539627Y-32277060D01*
X10539627Y-32238964D01*
X10549150Y-32191345D01*
X10558674Y-32162774D01*
X10568198Y-32143726D01*
X10587246Y-32115155D01*
X10596769Y-32105631D01*
X10777722Y-32334202D02*
X10663436Y-32334202D01*
X10720579Y-32334202D02*
X10720579Y-32134202D01*
X10701531Y-32162774D01*
X10682484Y-32181821D01*
X10663436Y-32191345D01*
X11015817Y-32334202D02*
X11015817Y-32134202D01*
X11101531Y-32334202D02*
X11101531Y-32229440D01*
X11092008Y-32210393D01*
X11072960Y-32200869D01*
X11044389Y-32200869D01*
X11025341Y-32210393D01*
X11015817Y-32219917D01*
X11225341Y-32334202D02*
X11206293Y-32324679D01*
X11196769Y-32315155D01*
X11187246Y-32296107D01*
X11187246Y-32238964D01*
X11196769Y-32219917D01*
X11206293Y-32210393D01*
X11225341Y-32200869D01*
X11253912Y-32200869D01*
X11272960Y-32210393D01*
X11282484Y-32219917D01*
X11292007Y-32238964D01*
X11292007Y-32296107D01*
X11282484Y-32315155D01*
X11272960Y-32324679D01*
X11253912Y-32334202D01*
X11225341Y-32334202D01*
X11406293Y-32334202D02*
X11387246Y-32324679D01*
X11377722Y-32305631D01*
X11377722Y-32134202D01*
X11558674Y-32324679D02*
X11539627Y-32334202D01*
X11501531Y-32334202D01*
X11482484Y-32324679D01*
X11472960Y-32305631D01*
X11472960Y-32229440D01*
X11482484Y-32210393D01*
X11501531Y-32200869D01*
X11539627Y-32200869D01*
X11558674Y-32210393D01*
X11568198Y-32229440D01*
X11568198Y-32248488D01*
X11472960Y-32267536D01*
X11634865Y-32410393D02*
X11644388Y-32400869D01*
X11663436Y-32372298D01*
X11672960Y-32353250D01*
X11682484Y-32324679D01*
X11692007Y-32277060D01*
X11692007Y-32238964D01*
X11682484Y-32191345D01*
X11672960Y-32162774D01*
X11663436Y-32143726D01*
X11644388Y-32115155D01*
X11634865Y-32105631D01*
M02*
